<svg xmlns="http://www.w3.org/2000/svg" viewBox="0 0 121 121"><defs><style>.cls-2{fill:none;stroke:#204ecf;stroke-linejoin:round}</style></defs><g id="Layer_2" data-name="Layer 2"><g id="Icons"><circle cx="60.5" cy="60.5" r="26.83" fill="#e4e8f8"/><circle class="cls-2" cx="60.5" cy="60.5" r="31.68"/><path class="cls-2" d="M111.22 19.28v-9.5h9.5M9.78 101.72v9.5H.28M101.72 111.22h9.5v9.5M19.28 9.78h-9.5V.28M50.43 68.03l-7.52-7.53 7.52-7.53M70.57 68.03l7.52-7.53-7.52-7.53M55.52 74.75l9.96-28.5M105.3 60.5L82.9 82.9"/><path class="cls-2" d="M50.1 26.1L66.42 9.78a31.68 31.68 0 0 1 44.8 0 31.68 31.68 0 0 1 0 44.8L108.8 57M19.3 56.9l18.8-18.8M70.9 94.9l-16.32 16.32a31.68 31.68 0 0 1-44.8 0 31.68 31.68 0 0 1 0-44.8l5.92-5.92M60.5 15.7l22.4 22.4"/><path class="cls-2" d="M26.1 70.9L12.2 57l-2.42-2.42a31.68 31.68 0 0 1 0-44.8 31.68 31.68 0 0 1 44.8 0L57 12.2M56.9 101.7L38.1 82.9M94.9 50.1l16.32 16.32a31.68 31.68 0 0 1 0 44.8 31.68 31.68 0 0 1-44.8 0l-5.92-5.92"/></g></g></svg>