<?xml version="1.0" encoding="utf-8"?>
<!-- Generator: Adobe Illustrator 21.0.0, SVG Export Plug-In . SVG Version: 6.00 Build 0)  -->
<svg version="1.1" id="Layer_3" xmlns="http://www.w3.org/2000/svg" xmlns:xlink="http://www.w3.org/1999/xlink" x="0px" y="0px"
	 viewBox="0 0 512 512" style="enable-background:new 0 0 512 512;" xml:space="preserve">
<style type="text/css">
	.st0{fill:#FFFFFF;}
</style>
<path class="st0" d="M472,184c-17.6,0-32,14.4-32,32v65.5c-9.4-2.7-20.2-0.7-27.3,6.5l-33.9,33.9C366.7,334,360,350.1,360,367.2V424
	h-8c-4.4,0-8,3.6-8,8v64c0,4.4,3.6,8,8,8h112c4.4,0,8-3.6,8-8v-64c0-4.4-3.6-8-8-8h-8v-12.7l26.9-26.9
	c13.6-13.6,21.1-31.7,21.1-50.9V216C504,198.4,489.6,184,472,184L472,184z M456,488h-96v-48h96V488z M488,333.5
	c0,15-5.8,29-16.4,39.6l-29.3,29.3c-1.5,1.5-2.3,3.5-2.3,5.7v16h-64v-56.8c0-12.8,5-24.9,14.1-33.9l33.9-33.9c4.3-4.3,11.7-4.3,16,0
	l4.7,4.7c2.1,2.1,3.3,5,3.3,8s-1.2,5.9-3.3,8l-26.3,26.3l11.3,11.3l26.3-26.3c5.2-5.2,8-12,8-19.3s-2.8-14.2-8-19.3V216
	c0-8.8,7.2-16,16-16s16,7.2,16,16V333.5z"/>
<path class="st0" d="M56,411.3V424h-8c-4.4,0-8,3.6-8,8v64c0,4.4,3.6,8,8,8h112c4.4,0,8-3.6,8-8v-64c0-4.4-3.6-8-8-8h-8v-56.8
	c0-17.1-6.7-33.2-18.7-45.2L99.3,288c-7.1-7.1-17.9-9.2-27.3-6.5V216c0-17.6-14.4-32-32-32S8,198.4,8,216v117.5
	c0,19.2,7.5,37.3,21.1,50.9L56,411.3z M152,488H56v-48h96V488z M24,216c0-8.8,7.2-16,16-16s16,7.2,16,16v76.7c-5.2,5.2-8,12-8,19.3
	s2.8,14.2,8,19.3l26.3,26.3l11.3-11.3L67.3,320c-2.1-2.1-3.3-5-3.3-8s1.2-5.9,3.3-8l4.7-4.7c4.3-4.3,11.7-4.3,16,0l33.9,33.9
	c9.1,9.1,14.1,21.1,14.1,33.9V424H72v-16c0-2.1-0.8-4.2-2.3-5.7l-29.3-29.3C29.8,362.5,24,348.5,24,333.5L24,216z"/>
<path class="st0" d="M96,144c-4.4,0-8,3.6-8,8v48c0,4.4,3.6,8,8,8h27.9c3.3,13.8,8.7,26.8,16,38.8l-19.7,19.7
	c-1.5,1.5-2.3,3.5-2.3,5.7c0,2.1,0.8,4.2,2.3,5.7l33.9,33.9c3,3,8.3,3,11.3,0l19.7-19.7c12,7.4,25,12.7,38.8,16V336c0,4.4,3.6,8,8,8
	h48c4.4,0,8-3.6,8-8v-27.9c13.8-3.3,26.8-8.7,38.8-16l19.7,19.7c3,3,8.3,3,11.3,0l33.9-33.9c1.5-1.5,2.3-3.5,2.3-5.7
	c0-2.1-0.8-4.2-2.3-5.7l-19.7-19.7c7.4-12,12.7-25,16-38.8H416c4.4,0,8-3.6,8-8v-48c0-4.4-3.6-8-8-8h-27.9
	c-3.3-13.8-8.7-26.8-16-38.8l19.7-19.7c1.5-1.5,2.3-3.5,2.3-5.7s-0.8-4.2-2.3-5.7l-33.9-33.9c-3-3-8.3-3-11.3,0l-19.7,19.7
	c-12-7.4-25-12.7-38.8-16V16c0-4.4-3.6-8-8-8h-48c-4.4,0-8,3.6-8,8v27.9c-13.8,3.3-26.8,8.7-38.8,16l-19.7-19.7
	c-1.5-1.5-3.5-2.3-5.7-2.3s-4.2,0.8-5.7,2.3l-33.9,33.9c-1.5,1.5-2.3,3.5-2.3,5.7s0.8,4.2,2.3,5.7l19.7,19.7
	c-7.4,12-12.7,25-16,38.8H96z M138.2,153.5c3.1-16.2,9.3-31.4,18.6-44.9c2.2-3.2,1.8-7.4-1-10.2l-18.6-18.6l22.6-22.6l18.6,18.6
	c2.7,2.7,7,3.1,10.2,1c13.6-9.2,28.7-15.5,44.9-18.6c3.8-0.7,6.5-4,6.5-7.9V24h32v26.3c0,3.8,2.7,7.1,6.5,7.9
	c16.2,3.1,31.4,9.3,44.9,18.6c3.2,2.2,7.4,1.8,10.2-1l18.6-18.6l22.6,22.6l-18.6,18.6c-2.7,2.7-3.1,7-1,10.2
	c9.2,13.6,15.5,28.7,18.6,44.9c0.7,3.8,4,6.5,7.9,6.5H408v32h-26.3c-3.8,0-7.1,2.7-7.9,6.5c-3.1,16.2-9.3,31.4-18.6,44.9
	c-2.2,3.2-1.8,7.4,1,10.2l18.6,18.6l-22.6,22.6l-18.6-18.6c-2.7-2.7-7-3.1-10.2-1c-13.6,9.2-28.7,15.5-44.9,18.6
	c-3.8,0.7-6.5,4-6.5,7.9V328h-32v-26.3c0-3.8-2.7-7.1-6.5-7.9c-16.3-3.1-31.4-9.3-44.9-18.6c-3.2-2.2-7.4-1.8-10.2,1l-18.6,18.6
	l-22.6-22.6l18.6-18.6c2.7-2.7,3.1-7,1-10.2c-9.2-13.6-15.5-28.7-18.6-44.9c-0.7-3.8-4-6.5-7.9-6.5H104v-32h26.3
	C134.2,160,137.5,157.3,138.2,153.5L138.2,153.5z"/>
<path class="st0" d="M256,280c57.3,0,104-46.7,104-104S313.3,72,256,72s-104,46.7-104,104S198.7,280,256,280z M248,263.6V200
	c0-2.1-0.8-4.2-2.3-5.7L232,180.7V168h48v12.7l-13.7,13.7c-1.5,1.5-2.3,3.5-2.3,5.7v63.6c-2.6,0.2-5.3,0.4-8,0.4
	S250.6,263.8,248,263.6z M280,152h-48v-16h48V152z M256,88c48.5,0,88,39.5,88,88c0,40.2-27.1,74.1-64,84.6v-57.3l13.7-13.7
	c1.5-1.5,2.3-3.5,2.3-5.7v-56c0-4.4-3.6-8-8-8h-64c-4.4,0-8,3.6-8,8v56c0,2.1,0.8,4.2,2.3,5.7l13.7,13.7v57.3
	c-36.9-10.5-64-44.4-64-84.6C168,127.5,207.5,88,256,88z"/>
</svg>
