<svg xmlns="http://www.w3.org/2000/svg" viewBox="0 0 121 121"><defs><style>.cls-1{fill:#e4e8f8}.cls-2{fill:none;stroke:#204ecf;stroke-linejoin:round}</style></defs><g id="Layer_2" data-name="Layer 2"><g id="Icons"><path class="cls-1" d="M.5 78.58h120v6.29H.5zM48.92 96.18h23.17V106H48.92zM97.43 23.82v-1.93a21.39 21.39 0 0 1-42.78 0v1.93H41.08v26.84H111V23.82zM23.38 23.82H10v51.56h26.76V23.82H23.38zM41.08 54.98h23.9v20.4h-23.9zM69.3 75.38H111v-20.4H69.3v11.69"/><path class="cls-2" d="M96.05 14.32h20.45a4 4 0 0 1 4 4v66.55M.5 84.87V18.32a4 4 0 0 1 4-4H52M72.08 96.18v16.15M48.92 112.33V96.18M30.75 117.33h59.5v3.17h-59.5zM120.5 84.87v7.31a4 4 0 0 1-4 4H4.5a4 4 0 0 1-4-4v-7.3z"/><circle class="cls-2" cx="76.04" cy="21.89" r="21.39"/><path class="cls-2" d="M86 17L72 30.93l-7 1.93 1.93-7L80.94 12a3.55 3.55 0 0 1 5 0 3.55 3.55 0 0 1 .06 5zM72.03 30.93l-3.67-3.66M84.31 18.65l-3.66-3.67"/></g></g></svg>