<svg xmlns="http://www.w3.org/2000/svg" viewBox="0 0 121 121"><defs><style>.cls-1{fill:#e4e8f8}.cls-2,.cls-3{fill:none;stroke:#204ecf;stroke-linejoin:round}.cls-2{fill-rule:evenodd}</style></defs><g id="Layer_2" data-name="Layer 2"><g id="Icons"><path class="cls-1" d="M16.64 57.99v19.57l16.13-7.28V50.72l-16.13 7.27zM60.5 15.06v19.57l16.14-7.28V7.78L60.5 15.06zM60.5 100.93v19.57l16.14-7.28V93.65l-16.14 7.28zM104.36 57.99v19.57l16.14-7.28V50.72l-16.14 7.27z"/><path class="cls-2" d="M16.64 43.44L.5 50.72l16.14 7.27 16.13-7.27-11.64-5.26"/><path class="cls-2" d="M32.77 50.72v19.56l-16.13 7.28L.5 70.28V50.72M60.5 15.06l16.14-7.28L60.5.5 44.37 7.78l16.13 7.28z"/><path class="cls-2" d="M76.64 7.78v19.57L60.5 34.63l-16.13-7.28V7.78M60.5 86.38l-16.13 7.27 16.13 7.28 16.14-7.28-16.14-7.27z"/><path class="cls-2" d="M76.64 93.65v19.57L60.5 120.5l-16.13-7.28V93.65M104.36 43.44l-16.13 7.28 16.13 7.27 16.14-7.27-11.64-5.26"/><path class="cls-2" d="M120.5 50.72v19.56l-16.14 7.28-16.13-7.28V50.72M16.63 50.72V28.63A11.07 11.07 0 0 1 27.7 17.56h11.68M104.37 50.72V28.63A11.07 11.07 0 0 0 93.3 17.56H81.63M16.63 77.56v14.81a11.07 11.07 0 0 0 11.07 11.07h11.68M104.37 77.56v14.81a11.07 11.07 0 0 1-11.07 11.07H81.63"/><path class="cls-3" d="M49.64 68.62l-8.12-8.12 8.12-8.12M71.36 68.62l8.12-8.12-8.12-8.12M55.13 75.88l10.74-30.75"/></g></g></svg>